<svg width="110" height="28" fill="none" xmlns="http://www.w3.org/2000/svg"><g clip-path="url(#a)" fill="#454E6D"><path d="M3.343.148c-.655 1.155-1.248 2.488-1.78 4.017a27.945 27.945 0 0 0-1.526 7.278c-.037.511-.05 2.049-.022 2.58.12 2.22.823 4.43 2.1 6.596 2.168 3.684 5.56 6.422 8.877 7.171a7.778 7.778 0 0 0 2.081.206c1.073-.026 2.022-.232 3.118-.673 3.517-1.416 6.92-5.043 8.569-9.134.373-.929.673-1.968.818-2.86.25-1.505.217-3.647-.087-5.792-.386-2.749-1.3-5.758-2.505-8.263-.189-.388-.625-1.21-.67-1.258-.022-.023-.924.04-1.251.086-1.394.2-2.616.758-3.62 1.657l-.186.168H8.467l-.146-.133C7.35.893 6.055.294 4.663.102 4.461.073 3.613.002 3.465 0c-.024 0-.07.058-.122.148ZM4.507 1.54a5.977 5.977 0 0 1 1.54.45c.635.29 1.295.784 1.666 1.242l.109.135H17.884l.332-.339c.674-.69 1.485-1.143 2.48-1.384a6 6 0 0 1 .779-.138c.085 0 .795 1.598 1.192 2.681.938 2.566 1.483 5.098 1.62 7.532.058 1.026.045 2.158-.031 2.825-.235 2.054-1.142 4.283-2.575 6.327-1.982 2.832-4.635 4.859-7.173 5.481-1.365.337-2.644.264-4.092-.232-4.329-1.482-8.33-6.596-8.92-11.403-.117-.944-.113-2.472.01-3.795.22-2.373.821-4.854 1.76-7.264.364-.937.92-2.152.983-2.152.02 0 .134.016.258.034Z"/><path d="m12.138 6.65.056.029c.193.097.378.2.552.328.057.039.094.061.163.06a.926.926 0 0 0 .192-.11c1.084-.73 2.443-1.057 3.729-1.119l.052-.002a3.25 3.25 0 0 1 .358.005 8.37 8.37 0 0 1 1.792.293 4.114 4.114 0 0 1 1.506.763l.107.082c.317.25.594.551.831.878l.058.078a5.88 5.88 0 0 1 .633 1.086c.808 1.673.833 3.677.253 5.424-.415 1.202-1.11 2.25-2.002 3.14l-.156.158-.102.102-.046.047c-.09.09-.181.174-.276.257a3.722 3.722 0 0 0-.179.166l-.046.044c-.107.102-.215.202-.327.3a7.564 7.564 0 0 1-.462.402c-.06.05-.119.103-.177.157-.107.098-.217.19-.33.282-.06.048-.118.097-.177.146a29.907 29.907 0 0 1-1.057.85l-.161.126-.055.042a21.606 21.606 0 0 1-.846.631c-.196.144-.393.285-.593.422-.12.082-.238.166-.356.25-.197.142-.399.274-.602.406l-.152.1c-.28.183-.561.363-.846.539l-.077.047a22.808 22.808 0 0 1-.362.221l-.058.035c-.069.027-.1.022-.17-.001-.056-.028-.056-.028-.114-.062l-.067-.04-.07-.042-.075-.044a20.824 20.824 0 0 1-.666-.42 31.37 31.37 0 0 1-1.216-.808l-.07-.049a39.351 39.351 0 0 1-1.684-1.236c-.085-.066-.17-.131-.257-.196-.22-.166-.434-.337-.643-.517a9.402 9.402 0 0 0-.27-.223 20.008 20.008 0 0 1-.953-.816 5.16 5.16 0 0 0-.187-.157 2.802 2.802 0 0 1-.245-.226 2.194 2.194 0 0 0-.121-.112c-.137-.119-.268-.243-.4-.367l-.045-.042c-.192-.18-.382-.363-.567-.55l-.052-.051c-1.255-1.27-1.958-2.949-2.142-4.718l-.01-.086c-.15-1.69.348-3.482 1.403-4.806a9.244 9.244 0 0 1 .403-.45C5.731 6.281 7.2 5.87 8.564 5.838a7.737 7.737 0 0 1 3.574.811Zm-4.393.813-.074.014c-.679.137-1.224.365-1.739.845a1.933 1.933 0 0 0-.35.348l-.05.062a4.572 4.572 0 0 0-.662 1.153c-.15.373-.243.758-.322 1.152l-.014.065c-.2 1.001-.043 2.153.336 3.091l.02.048a6.01 6.01 0 0 0 .698 1.29c.247.34.527.645.823.94l.156.158.102.102.046.047c.09.09.181.174.277.257.045.04.089.08.132.122l.046.044.092.088c.156.148.317.289.48.429.096.082.19.165.283.25.106.097.215.188.325.278l.235.194c.345.287.691.573 1.047.847l.157.121a27.422 27.422 0 0 0 .884.66c.344.252.692.5 1.047.737l.18.12c.275.187.554.37.835.548l.116.077a.418.418 0 0 0 .185-.079l.057-.036.061-.04.066-.043c.493-.321.98-.651 1.46-.992l.161-.113a29.413 29.413 0 0 0 1.215-.91c.27-.207.541-.415.8-.639.088-.076.178-.149.27-.22a8.22 8.22 0 0 0 .385-.324c.083-.073.166-.144.252-.213.13-.106.251-.221.373-.336.07-.067.142-.13.214-.194.259-.227.51-.46.751-.707.045-.045.091-.087.14-.128a4.18 4.18 0 0 0 .552-.58c.034-.042.067-.083.102-.123a5.397 5.397 0 0 0 .937-1.564l.025-.063c.187-.492.325-.992.389-1.515l.007-.05c.16-1.34-.164-2.823-.996-3.895-.592-.757-1.296-1.143-2.23-1.323l-.059-.012a5.525 5.525 0 0 0-2.175.05 5.821 5.821 0 0 0-2.55 1.261 20.31 20.31 0 0 1-.139.116l-.05.042a4.937 4.937 0 0 1-.091.075c-.043.023-.043.023-.092.016a.459.459 0 0 1-.13-.08l-.054-.045a39.11 39.11 0 0 1-.148-.122 5.948 5.948 0 0 0-2.77-1.301l-.057-.012a5.296 5.296 0 0 0-1.967.012Z"/><path d="M12.872 14.583c-1.165.305-.608 1.973-.25 2.688.113.226.25.229.25.229s.137-.003.25-.229c.359-.715.916-2.383-.25-2.688Z"/><path fill-rule="evenodd" clip-rule="evenodd" d="M5.851 11.847c0 1.737 1.45 3.15 3.231 3.15 1.782 0 3.23-1.413 3.23-3.15 0-1.737-1.448-3.15-3.23-3.15s-3.23 1.413-3.23 3.15Zm1.622 0c0-.867.72-1.569 1.609-1.569.888 0 1.608.702 1.608 1.569 0 .866-.72 1.568-1.608 1.568-.888 0-1.609-.702-1.609-1.568ZM13.432 11.847c0 1.737 1.449 3.15 3.23 3.15 1.782 0 3.232-1.413 3.232-3.15 0-1.737-1.45-3.15-3.231-3.15-1.782 0-3.231 1.413-3.231 3.15Zm1.622 0c0-.867.72-1.569 1.608-1.569.888 0 1.609.702 1.609 1.569 0 .866-.72 1.568-1.609 1.568-.887 0-1.608-.702-1.608-1.568Z"/><path d="M33.153 19.142a.38.38 0 0 1-.279-.107.37.37 0 0 1-.108-.275V8.82a.37.37 0 0 1 .108-.274.38.38 0 0 1 .28-.107h4.229c.836 0 1.56.127 2.169.382.62.255 1.1.642 1.44 1.162.352.51.527 1.147.527 1.911 0 .775-.175 1.417-.527 1.927-.34.5-.82.872-1.44 1.116-.61.245-1.333.367-2.17.367h-2.075v3.456a.37.37 0 0 1-.388.382h-1.766Zm2.107-5.734h2.045c.527 0 .935-.127 1.224-.382.3-.255.45-.637.45-1.147 0-.448-.135-.815-.403-1.1-.259-.286-.682-.429-1.27-.429H35.26v3.058ZM44.823 19.295a3.42 3.42 0 0 1-1.472-.306 2.76 2.76 0 0 1-1.038-.856 1.986 1.986 0 0 1-.387-1.193c0-.723.294-1.294.883-1.712.599-.418 1.384-.704 2.355-.857l2.03-.29v-.275c0-.398-.094-.704-.28-.918-.186-.214-.511-.32-.976-.32-.34 0-.614.066-.82.198a1.373 1.373 0 0 0-.481.52.396.396 0 0 1-.356.199h-1.472c-.114 0-.202-.03-.264-.092a.306.306 0 0 1-.077-.245c0-.173.067-.377.201-.611.135-.235.341-.464.62-.689.279-.234.635-.428 1.07-.58.433-.154.965-.23 1.595-.23.65 0 1.208.076 1.673.23.465.152.837.366 1.115.642.28.275.486.596.62.963.134.357.201.744.201 1.162v4.725a.37.37 0 0 1-.387.382h-1.518a.37.37 0 0 1-.372-.382v-.566a2.479 2.479 0 0 1-.542.55 2.919 2.919 0 0 1-.821.398c-.31.102-.677.153-1.1.153Zm.62-1.59c.34 0 .645-.071.914-.214.268-.143.48-.362.635-.658.155-.295.232-.667.232-1.116v-.26l-1.44.23c-.558.091-.966.229-1.224.412-.259.184-.388.408-.388.673 0 .194.057.362.17.505.125.142.285.25.48.32.197.072.404.108.62.108ZM51.517 22.047a.38.38 0 0 1-.28-.106.37.37 0 0 1-.108-.276V11.573a.37.37 0 0 1 .109-.275.38.38 0 0 1 .279-.107h1.471a.38.38 0 0 1 .28.107.37.37 0 0 1 .108.275v.581c.248-.326.568-.59.96-.795.393-.214.883-.32 1.472-.32.537 0 1.002.086 1.394.259.403.163.739.403 1.007.719.28.306.491.678.636 1.116.154.438.242.933.263 1.483a10.396 10.396 0 0 1 0 1.116c-.01.52-.093 1-.248 1.438a3.205 3.205 0 0 1-.635 1.131 2.84 2.84 0 0 1-1.023.734c-.392.174-.857.26-1.394.26-.527 0-.986-.092-1.379-.275a2.702 2.702 0 0 1-.945-.78v3.425a.37.37 0 0 1-.372.383h-1.595Zm3.594-4.587c.392 0 .702-.081.93-.244.227-.174.387-.398.48-.673.103-.276.165-.576.186-.902.02-.316.02-.632 0-.948a3.116 3.116 0 0 0-.186-.902 1.299 1.299 0 0 0-.48-.658c-.228-.173-.538-.26-.93-.26-.382 0-.692.087-.93.26a1.456 1.456 0 0 0-.51.658c-.104.264-.166.55-.187.856a10.093 10.093 0 0 0 0 1.146c.01.286.072.556.186.811.124.245.3.449.527.612.237.163.542.244.914.244ZM64.051 19.295c-1.188 0-2.133-.326-2.835-.979-.692-.652-1.059-1.6-1.1-2.844v-.657c.041-.785.222-1.458.542-2.018.32-.571.77-1.005 1.348-1.3.578-.306 1.255-.459 2.03-.459.867 0 1.59.178 2.169.535a3.242 3.242 0 0 1 1.316 1.438c.3.601.45 1.294.45 2.08v.35a.331.331 0 0 1-.124.26.36.36 0 0 1-.264.108h-5.066v.122c.01.326.073.627.186.902.124.265.295.48.511.643.228.163.496.244.806.244.258 0 .47-.035.635-.107.165-.071.3-.158.403-.26.114-.102.196-.188.248-.26a.727.727 0 0 1 .217-.183.654.654 0 0 1 .279-.046h1.61c.104 0 .187.03.249.092.072.05.103.127.093.229-.01.163-.098.367-.264.612-.154.234-.387.469-.697.703a4.23 4.23 0 0 1-1.162.566c-.454.153-.98.23-1.58.23Zm-1.534-4.878h3.037v-.03c0-.367-.062-.683-.186-.948a1.39 1.39 0 0 0-.511-.642c-.228-.153-.501-.23-.821-.23-.32 0-.594.077-.822.23a1.489 1.489 0 0 0-.526.642c-.114.265-.17.58-.17.948v.03ZM69.581 19.142a.37.37 0 0 1-.372-.382v-7.187c0-.102.037-.188.109-.26a.34.34 0 0 1 .263-.122H71.1a.34.34 0 0 1 .263.122.331.331 0 0 1 .124.26v.612c.258-.316.573-.56.945-.734.382-.173.821-.26 1.317-.26h.666a.37.37 0 0 1 .372.382v1.315a.37.37 0 0 1-.372.383h-1.363c-.455 0-.811.127-1.07.382-.258.245-.387.596-.387 1.055v4.052a.37.37 0 0 1-.108.275.38.38 0 0 1-.28.107h-1.626ZM78.808 19.295c-.64 0-1.193-.071-1.658-.214-.454-.153-.826-.336-1.115-.55a2.853 2.853 0 0 1-.635-.643c-.135-.224-.207-.412-.217-.565a.307.307 0 0 1 .108-.276.381.381 0 0 1 .248-.107h1.503c.03 0 .062.005.093.016.03.01.062.035.093.076.134.092.273.199.418.321.145.112.31.21.496.29.196.082.439.123.728.123.34 0 .63-.066.868-.199.237-.142.356-.341.356-.596a.648.648 0 0 0-.17-.459c-.104-.122-.305-.234-.605-.336a12.02 12.02 0 0 0-1.332-.336 5.795 5.795 0 0 1-1.425-.49c-.393-.204-.687-.459-.883-.764-.197-.316-.295-.694-.295-1.132 0-.398.124-.78.372-1.147.258-.367.635-.668 1.131-.902.496-.245 1.115-.367 1.86-.367.567 0 1.063.072 1.486.214.434.133.796.306 1.085.52.289.204.506.418.65.642.155.214.238.403.248.566a.305.305 0 0 1-.093.26.343.343 0 0 1-.248.107h-1.378a.584.584 0 0 1-.14-.015.411.411 0 0 1-.108-.077 7.018 7.018 0 0 1-.387-.275 1.783 1.783 0 0 0-.45-.29c-.175-.082-.403-.123-.681-.123-.341 0-.605.077-.79.23a.677.677 0 0 0-.124.948c.093.122.284.234.573.336.289.102.728.209 1.317.321.702.122 1.26.306 1.673.55.413.245.707.53.883.857.186.316.279.657.279 1.024 0 .48-.145.908-.434 1.285-.29.367-.713.657-1.27.871-.548.204-1.224.306-2.03.306ZM88.196 19.295c-.94 0-1.75-.153-2.432-.459a3.545 3.545 0 0 1-1.596-1.376c-.382-.622-.589-1.401-.62-2.34a55.336 55.336 0 0 1 0-2.63c.031-.917.238-1.686.62-2.308A3.674 3.674 0 0 1 85.78 8.76c.693-.316 1.498-.474 2.417-.474.91 0 1.704.158 2.386.474.692.316 1.234.79 1.627 1.422.392.622.599 1.391.62 2.309a28.858 28.858 0 0 1 0 2.63c-.031.938-.238 1.717-.62 2.34a3.545 3.545 0 0 1-1.596 1.375c-.682.306-1.487.46-2.417.46Zm0-1.972c.6 0 1.09-.179 1.472-.535.392-.367.599-.949.62-1.744a26.746 26.746 0 0 0 0-2.508c-.01-.53-.109-.963-.295-1.3a1.711 1.711 0 0 0-.743-.733 2.17 2.17 0 0 0-1.054-.245c-.403 0-.759.082-1.069.245a1.71 1.71 0 0 0-.743.734c-.176.336-.274.77-.295 1.3a53.47 53.47 0 0 0 0 2.507c.031.795.238 1.377.62 1.744.382.356.878.535 1.487.535ZM96.517 19.142a.504.504 0 0 1-.34-.107.739.739 0 0 1-.17-.275l-2.216-7.08a.405.405 0 0 1-.031-.153.31.31 0 0 1 .093-.229.343.343 0 0 1 .248-.107h1.363c.134 0 .238.036.31.107a.538.538 0 0 1 .14.199l1.41 4.725 1.502-4.695a.509.509 0 0 1 .14-.214.464.464 0 0 1 .34-.122h.883c.145 0 .253.04.326.122a.476.476 0 0 1 .155.214l1.502 4.695 1.41-4.725c.01-.061.052-.128.124-.199a.458.458 0 0 1 .31-.107h1.363c.093 0 .171.036.233.107a.289.289 0 0 1 .108.23.722.722 0 0 1-.016.152l-2.23 7.08a.545.545 0 0 1-.171.275c-.072.072-.181.107-.325.107h-1.193a.505.505 0 0 1-.341-.107.648.648 0 0 1-.186-.275l-1.502-4.526-1.534 4.526a.547.547 0 0 1-.17.275.504.504 0 0 1-.342.107h-1.192ZM107.224 19.142a.368.368 0 0 1-.387-.382V8.668a.368.368 0 0 1 .387-.382h1.55a.36.36 0 0 1 .263.107.37.37 0 0 1 .108.275V18.76a.37.37 0 0 1-.371.382h-1.55Z"/></g><defs><clipPath id="a"><path fill="#fff" d="M0 0h110v28H0z"/></clipPath></defs></svg>