<svg width="40" height="40" fill="none" xmlns="http://www.w3.org/2000/svg"><path d="m12.884 32.928 1.516 3.787s.61.506 1.449 0v-3.036l-2.965-.75z" fill="#F1950B"/><path d="M15.051 36.564s3.96-.216 3.941 1.704c-.017 1.92-2.401 1.59-3.615-.272-1.214-1.862-.326-1.432-.326-1.432z" fill="url(#a)"/><path d="M14.4 36.508s-5.098-.864-5.771 1.675c-.49 1.845 3.261 1.833 4.475-.036 1.214-1.868 1.296-1.64 1.296-1.64z" fill="url(#b)"/><path d="M14.398 36.507s-.945.321-1.336 1.115c-.392.794-.146 2.268 1.336 2.373 1.482.105 1.744-1.852 1.074-2.984a.998.998 0 0 0-.458-.446.91.91 0 0 0-.616-.058z" fill="url(#c)"/><path d="m27.11 32.928-1.514 3.787s-.612.507-1.451 0v-3.036l2.965-.75z" fill="#F1950B"/><path d="M24.944 36.545s-3.957-.196-3.941 1.724c.017 1.92 2.4 1.59 3.616-.272 1.215-1.862.325-1.452.325-1.452z" fill="url(#d)"/><path d="M25.595 36.508s5.098-.863 5.769 1.675c.49 1.846-3.26 1.834-4.475-.035-1.216-1.869-1.294-1.64-1.294-1.64z" fill="url(#e)"/><path d="M25.597 36.507s.944.321 1.335 1.116c.39.794.146 2.267-1.335 2.372-1.482.105-1.746-1.852-1.076-2.984a.999.999 0 0 1 .459-.446.91.91 0 0 1 .617-.058z" fill="url(#f)"/><path d="M5.997 16.28s-4.856 5.722-3.123 10.812c1.732 5.09 6.47 2.723 6.47 2.723S4.668 24.356 7.13 17.319L5.997 16.28z" fill="url(#g)"/><path d="M34.003 16.28s4.856 5.722 3.123 10.812c-1.732 5.09-6.47 2.716-6.47 2.716s4.675-5.458 2.213-12.496l1.134-1.031z" fill="url(#h)"/><path d="M33.871 18.289s2.416 3.96 1.459 5.828c-.958 1.867-1.8 1.587-1.8 1.587s.575 4.172-1.06 4.767c-.797.289-1.285-.015-1.576-.409 0 0 .175 2.68-2.226 3.613-2.402.933-3.07-.192-3.07-.192s-.799 1.806-2.754 1.634C20.888 34.946 20 33.983 20 33.983s-.89.968-2.845 1.134c-1.956.166-2.753-1.634-2.753-1.634s-.667 1.126-3.07.192c-2.403-.935-2.228-3.613-2.228-3.613-.29.387-.779.691-1.575.409-1.636-.593-1.059-4.767-1.059-4.767s-.848.272-1.801-1.587c-.954-1.86 1.46-5.828 1.46-5.828H33.87z" fill="url(#i)"/><g style="mix-blend-mode:overlay" opacity=".5"><path style="mix-blend-mode:overlay" d="M20.157 26.314a.123.123 0 0 1-.09-.04.14.14 0 0 1-.037-.096v-2.199c0-.036.013-.07.037-.096a.123.123 0 0 1 .09-.04c.034 0 .066.015.09.04.024.026.037.06.037.096v2.199c0 .036-.013.07-.037.096a.123.123 0 0 1-.09.04z" fill="url(#j)" opacity=".5"/><path style="mix-blend-mode:overlay" d="M23.56 26.314a.123.123 0 0 1-.09-.04.14.14 0 0 1-.038-.096v-2.199c0-.036.014-.07.037-.096a.123.123 0 0 1 .09-.04c.034 0 .066.015.09.04.024.026.037.06.037.096v2.199c0 .036-.013.07-.037.096a.123.123 0 0 1-.09.04z" fill="url(#k)" opacity=".5"/><path style="mix-blend-mode:overlay" d="M26.965 26.314a.123.123 0 0 1-.09-.04.14.14 0 0 1-.037-.096v-2.199c0-.036.014-.07.037-.096a.123.123 0 0 1 .09-.04c.034 0 .066.015.09.04.024.026.037.06.037.096v2.199c0 .036-.013.07-.037.096a.123.123 0 0 1-.09.04z" fill="url(#l)" opacity=".5"/><path style="mix-blend-mode:overlay" d="M16.754 26.314a.123.123 0 0 1-.09-.04.141.141 0 0 1-.038-.096v-2.199c0-.036.014-.07.038-.096a.123.123 0 0 1 .09-.04c.033 0 .066.015.09.04.023.026.037.06.037.096v2.199c0 .036-.014.07-.038.096a.123.123 0 0 1-.09.04z" fill="url(#m)" opacity=".5"/><path style="mix-blend-mode:overlay" d="M13.353 26.314a.123.123 0 0 1-.09-.04.141.141 0 0 1-.037-.096v-2.199c0-.036.013-.07.037-.096a.123.123 0 0 1 .09-.04c.034 0 .066.015.09.04.024.026.037.06.037.096v2.199c0 .036-.013.07-.037.096a.123.123 0 0 1-.09.04z" fill="url(#n)" opacity=".5"/><path style="mix-blend-mode:overlay" d="M21.983 29.627a.123.123 0 0 1-.09-.04.141.141 0 0 1-.037-.097v-2.197c0-.036.013-.07.037-.096a.123.123 0 0 1 .09-.04c.034 0 .066.014.09.04.024.026.037.06.037.096v2.197c0 .036-.013.071-.037.097a.123.123 0 0 1-.09.04z" fill="url(#o)" opacity=".5"/><path style="mix-blend-mode:overlay" d="M25.385 29.627a.123.123 0 0 1-.09-.04.141.141 0 0 1-.037-.096v-2.197c0-.037.014-.071.038-.097a.123.123 0 0 1 .09-.04c.033 0 .066.015.09.04.023.026.037.06.037.097v2.197c0 .036-.014.07-.038.096a.123.123 0 0 1-.09.04z" fill="url(#p)" opacity=".5"/><path style="mix-blend-mode:overlay" d="M18.578 29.627a.123.123 0 0 1-.09-.04.141.141 0 0 1-.037-.096v-2.197c0-.037.014-.071.037-.097a.123.123 0 0 1 .09-.04c.034 0 .066.015.09.04.024.026.037.06.037.097v2.197c0 .036-.013.07-.037.096a.123.123 0 0 1-.09.04z" fill="url(#q)" opacity=".5"/><path style="mix-blend-mode:overlay" d="M15.176 29.627a.123.123 0 0 1-.09-.04.141.141 0 0 1-.037-.097v-2.197c0-.036.013-.07.037-.096a.123.123 0 0 1 .09-.04c.034 0 .066.014.09.04.024.026.037.06.037.096v2.197c0 .036-.013.071-.037.097a.123.123 0 0 1-.09.04z" fill="url(#r)" opacity=".5"/><path style="mix-blend-mode:overlay" d="M23.641 32.948a.123.123 0 0 1-.09-.04.141.141 0 0 1-.037-.096v-2.198a.14.14 0 0 1 .037-.097.123.123 0 0 1 .09-.04c.034 0 .066.015.09.04a.14.14 0 0 1 .037.097v2.198c0 .036-.013.07-.037.096a.123.123 0 0 1-.09.04z" fill="url(#s)" opacity=".5"/><path style="mix-blend-mode:overlay" d="M20.24 32.948a.123.123 0 0 1-.09-.04.142.142 0 0 1-.037-.096v-2.198c0-.037.013-.071.037-.097a.123.123 0 0 1 .09-.04c.034 0 .066.015.09.04a.14.14 0 0 1 .037.097v2.198c0 .036-.013.07-.037.096a.123.123 0 0 1-.09.04z" fill="url(#t)" opacity=".5"/><path style="mix-blend-mode:overlay" d="M16.834 32.948a.123.123 0 0 1-.09-.04.142.142 0 0 1-.037-.096v-2.198c0-.037.013-.071.037-.097a.123.123 0 0 1 .09-.04c.034 0 .066.015.09.04a.14.14 0 0 1 .037.097v2.198c0 .036-.013.07-.037.096a.123.123 0 0 1-.09.04z" fill="url(#u)" opacity=".5"/></g><mask id="E" style="mask-type:alpha" maskUnits="userSpaceOnUse" x="2" y="16" width="36" height="24"><path d="m12.887 32.928 1.515 3.787s.61.506 1.45 0v-3.036l-2.965-.75z" fill="#F1950B"/><path d="M15.053 36.565s3.959-.217 3.941 1.704c-.018 1.92-2.401 1.59-3.615-.273-1.215-1.861-.326-1.431-.326-1.431z" fill="url(#v)"/><path d="M14.402 36.508s-5.098-.864-5.77 1.675c-.49 1.846 3.26 1.833 4.475-.035 1.214-1.87 1.295-1.64 1.295-1.64z" fill="url(#w)"/><path d="M14.402 36.508s-.944.321-1.336 1.115c-.392.794-.146 2.268 1.336 2.373 1.482.105 1.744-1.852 1.074-2.984a.998.998 0 0 0-.458-.446.91.91 0 0 0-.616-.058z" fill="url(#x)"/><path d="m27.112 32.928-1.514 3.787s-.612.506-1.451 0v-3.036l2.965-.75z" fill="#F1950B"/><path d="M24.945 36.544s-3.957-.196-3.94 1.725c.016 1.92 2.4 1.59 3.615-.273 1.215-1.861.325-1.452.325-1.452z" fill="url(#y)"/><path d="M25.598 36.508s5.098-.864 5.769 1.675c.49 1.846-3.26 1.833-4.475-.035-1.216-1.87-1.294-1.64-1.294-1.64z" fill="url(#z)"/><path d="M25.598 36.508s.944.321 1.334 1.115c.39.794.147 2.268-1.334 2.373-1.482.105-1.746-1.852-1.076-2.984a1 1 0 0 1 .459-.446.911.911 0 0 1 .616-.058z" fill="url(#A)"/><path d="M5.997 16.28s-4.856 5.722-3.123 10.812c1.732 5.09 6.47 2.723 6.47 2.723S4.668 24.356 7.13 17.319L5.997 16.28z" fill="url(#B)"/><path d="M34.002 16.28s4.857 5.722 3.124 10.812c-1.733 5.09-6.471 2.716-6.471 2.716s4.676-5.458 2.213-12.496l1.134-1.031z" fill="url(#C)"/><path d="M33.871 18.289s2.416 3.96 1.459 5.828c-.958 1.867-1.8 1.587-1.8 1.587s.575 4.172-1.06 4.767c-.797.289-1.285-.015-1.576-.409 0 0 .175 2.68-2.226 3.613-2.402.933-3.07-.192-3.07-.192s-.799 1.806-2.754 1.634C20.888 34.945 20 33.982 20 33.982s-.89.969-2.845 1.135c-1.956.166-2.753-1.634-2.753-1.634s-.667 1.126-3.07.192c-2.403-.935-2.228-3.613-2.228-3.613-.29.387-.779.69-1.575.409-1.636-.593-1.059-4.767-1.059-4.767s-.848.272-1.801-1.587c-.954-1.86 1.46-5.828 1.46-5.828H33.87z" fill="url(#D)"/></mask><g mask="url(#E)"><path style="mix-blend-mode:overlay" opacity=".5" d="M11.275-3.274C8.266.124 6.408 4.506 5.996 9.169c-.412 4.663.647 9.34 3.008 13.283 2.36 3.942 5.886 6.924 10.013 8.468a18.322 18.322 0 0 0 12.757.048l4.751 16.239-39.552-5.63 5.72-46.073 8.582 1.222z" fill="url(#F)"/></g><path d="M19.798 25.401c7.786 0 14.097-4.508 14.097-10.068S27.584 5.264 19.798 5.264c-7.785 0-14.096 4.508-14.096 10.069 0 5.56 6.31 10.068 14.096 10.068z" fill="url(#G)"/><path d="M35.206 12.635c0 .784-.613 1.362-.85 1.949-.262.658-.27 1.521-.792 1.972-.475.409-1.3.273-1.963.545-.57.233-1.061.941-1.749 1.09-.608.136-1.335-.304-2.021-.225-.625.072-1.239.669-1.92.71-.636.037-1.31-.482-1.985-.466-.635.016-1.287.57-1.959.575-.643 0-1.302-.545-1.968-.545-.666 0-1.325.545-1.968.545-.671 0-1.32-.559-1.959-.575-.675-.016-1.351.502-1.984.466-.682-.041-1.296-.638-1.92-.71-.687-.079-1.414.357-2.022.225-.687-.149-1.18-.857-1.749-1.09-.662-.272-1.489-.136-1.964-.545-.521-.45-.53-1.315-.792-1.972-.235-.591-.848-1.165-.848-1.95 0-.784.619-1.465.855-2.203.237-.738.127-1.656.553-2.315.403-.613 1.272-.835 1.829-1.378.518-.503.794-1.405 1.431-1.836.595-.401 1.477-.291 2.161-.62.644-.31 1.145-1.089 1.858-1.331.676-.227 1.506.109 2.236-.045.698-.148 1.345-.799 2.083-.873.71-.073 1.46.433 2.2.433.74 0 1.49-.506 2.2-.433.737.074 1.384.725 2.083.873.729.154 1.559-.182 2.237.045.712.237 1.213 1.021 1.857 1.332.684.33 1.566.218 2.161.62.636.43.913 1.333 1.433 1.835.56.545 1.424.765 1.828 1.378.432.655.32 1.592.552 2.315.231.723.856 1.417.856 2.204z" fill="url(#H)"/><path d="M5.817 6.614S3.037 3.944 6.219 0c0 0 .762 3.359 4.485 3.307 0 0-2.704 3.516-4.887 3.307z" fill="url(#I)"/><path d="M34.178 6.614s2.78-2.67-.402-6.614c0 0-.763 3.359-4.484 3.307 0 0 2.703 3.516 4.886 3.307z" fill="url(#J)"/><path d="M35.859 9.482a.603.603 0 0 1-.007-.424.552.552 0 0 1 .27-.31c.403-.21.85-.695.524-1.803-.455-1.544-3.584-2.555-4.53-2.827a.524.524 0 0 1-.19-.11.568.568 0 0 1-.135-.182c-.088-.177-.292-.45-.773-.778-.651-.44-1.796-.3-2.31-.205a.507.507 0 0 1-.39-.1c-.205-.152-.737-.348-2.104-.272-2.125.136-4.105 3.15-4.105 3.15-.06.067-.117.137-.174.203-.244.289-.541.52-.874.677a2.456 2.456 0 0 1-2.11 0 2.618 2.618 0 0 1-.873-.677 12.692 12.692 0 0 0-.174-.203s-1.981-3.018-4.107-3.15c-1.365-.083-1.898.113-2.103.272a.51.51 0 0 1-.391.1c-.509-.094-1.653-.235-2.308.205-.481.327-.686.601-.773.778a.57.57 0 0 1-.138.183.526.526 0 0 1-.196.109c-.946.272-4.075 1.283-4.53 2.827-.326 1.108.126 1.593.523 1.804.124.062.22.172.27.309a.604.604 0 0 1-.006.424c-.428 1.067-1.26 3.28-.967 3.694.108.155.233.296.372.42a.575.575 0 0 1 .178.288.61.61 0 0 1-.01.344c-.105.326-.21.778-.127 1.128.04.145.108.28.2.394.09.115.203.209.33.275.09.056.164.138.211.238.047.1.066.212.055.323-.042.484.065 1.291 1.09 1.808a.539.539 0 0 1 .179.14c.05.06.086.13.109.207.203.708.924 2.732 2.623 3.212 1.478.418 2.607.235 3.131.098a.498.498 0 0 1 .28.005.528.528 0 0 1 .239.157c.381.448 1.359 1.284 3.108 1.04 1.75-.246 2.182-1.348 2.282-1.891a.59.59 0 0 1 .112-.247.539.539 0 0 1 .206-.162c.422-.19 1.22-.718 1.788-2.087a.56.56 0 0 1 .19-.247.505.505 0 0 1 .284-.097h.007c.102.003.2.037.285.098.084.06.15.146.19.246.568 1.37 1.365 1.896 1.786 2.087.08.035.15.09.207.162a.59.59 0 0 1 .112.247c.1.544.521 1.645 2.28 1.89 1.76.245 2.724-.591 3.11-1.04a.527.527 0 0 1 .24-.156.497.497 0 0 1 .28-.005c.523.136 1.652.32 3.13-.098 1.699-.48 2.416-2.504 2.623-3.212a.58.58 0 0 1 .11-.207c.049-.06.11-.107.177-.14 1.025-.517 1.133-1.324 1.09-1.808a.61.61 0 0 1 .055-.323.56.56 0 0 1 .212-.238c.127-.066.24-.16.33-.275.092-.115.16-.25.2-.394.078-.35-.026-.802-.133-1.128a.61.61 0 0 1-.01-.344.574.574 0 0 1 .179-.288c.138-.124.263-.265.371-.42.284-.415-.55-2.627-.98-3.694z" fill="url(#K)"/><path style="mix-blend-mode:overlay" opacity=".1" d="M11.859 19.877c4.056 0 7.344-3.523 7.344-7.869 0-4.345-3.288-7.868-7.344-7.868-4.057 0-7.345 3.523-7.345 7.868 0 4.346 3.288 7.87 7.345 7.87z" fill="url(#L)"/><path d="M11.858 18.752c3.476 0 6.294-3.02 6.294-6.744 0-3.724-2.818-6.744-6.294-6.744-3.476 0-6.295 3.02-6.295 6.744 0 3.724 2.819 6.744 6.295 6.744z" fill="url(#M)"/><path d="M11.86 17.346c2.752 0 4.982-2.39 4.982-5.338S14.612 6.67 11.86 6.67c-2.752 0-4.983 2.39-4.983 5.338s2.231 5.338 4.983 5.338z" fill="url(#N)"/><path d="M12.58 16.573c2.352 0 4.26-2.043 4.26-4.564s-1.908-4.565-4.26-4.565c-2.353 0-4.26 2.044-4.26 4.565 0 2.52 1.907 4.564 4.26 4.564z" fill="url(#O)"/><path d="M14.053 10.984c1.21 0 2.19-1.051 2.19-2.347s-.98-2.347-2.19-2.347-2.19 1.05-2.19 2.347c0 1.296.98 2.347 2.19 2.347z" fill="url(#P)"/><path style="mix-blend-mode:overlay" opacity=".1" d="M27.959 19.877c4.056 0 7.344-3.523 7.344-7.869 0-4.345-3.288-7.868-7.344-7.868-4.057 0-7.345 3.523-7.345 7.868 0 4.346 3.288 7.87 7.345 7.87z" fill="url(#Q)"/><path d="M28.138 18.752c3.476 0 6.294-3.02 6.294-6.744 0-3.724-2.818-6.744-6.294-6.744-3.477 0-6.295 3.02-6.295 6.744 0 3.724 2.818 6.744 6.295 6.744z" fill="url(#R)"/><path d="M28.138 17.346c2.752 0 4.983-2.39 4.983-5.338S30.89 6.67 28.138 6.67c-2.751 0-4.982 2.39-4.982 5.338s2.23 5.338 4.982 5.338z" fill="url(#S)"/><path d="M27.465 16.625c2.38 0 4.308-2.067 4.308-4.616 0-2.55-1.929-4.616-4.308-4.616-2.38 0-4.309 2.066-4.309 4.616 0 2.549 1.929 4.616 4.309 4.616z" fill="url(#T)"/><path d="M30.362 10.984c1.225 0 2.219-1.064 2.219-2.377 0-1.313-.994-2.377-2.219-2.377-1.225 0-2.218 1.064-2.218 2.377 0 1.313.993 2.377 2.218 2.377z" fill="url(#U)"/><path d="M21.906 16.345h-3.814l-.127.19a.57.57 0 0 0-.019.612l1.752 2.949a.377.377 0 0 0 .132.132.346.346 0 0 0 .351 0 .377.377 0 0 0 .132-.132l1.746-2.95a.575.575 0 0 0-.02-.61l-.133-.191z" fill="url(#V)"/><path d="M20 19.498c1.082-1.078 1.89-3.132 1.89-3.132C20.975 14.282 20 14.14 20 14.14s-.976.136-1.89 2.226c0 .001.808 2.054 1.89 3.132z" fill="#F1950B"/><mask id="W" style="mask-type:alpha" maskUnits="userSpaceOnUse" x="18" y="14" width="4" height="6"><path d="M20.001 19.498c1.082-1.078 1.89-3.132 1.89-3.132C20.977 14.282 20 14.14 20 14.14s-.976.136-1.889 2.226c0 .001.807 2.054 1.89 3.132z" fill="#F1950B"/></mask><g mask="url(#W)"><path style="mix-blend-mode:overlay" opacity=".5" d="M20 14.142v5.357h-3.014v-5.452l3.015.095z" fill="url(#X)"/></g><defs><linearGradient id="y" x1="21.552" y1="43.724" x2="18.994" y2="11.918" gradientUnits="userSpaceOnUse"><stop stop-color="#FFD03C"/><stop offset="1" stop-color="#F1950B"/></linearGradient><linearGradient id="a" x1="16.865" y1="39.742" x2="16.865" y2="35.823" gradientUnits="userSpaceOnUse"><stop stop-color="#FFD03C"/><stop offset="1" stop-color="#F1950B"/></linearGradient><linearGradient id="c" x1="14.359" y1="39.742" x2="14.359" y2="35.823" gradientUnits="userSpaceOnUse"><stop stop-color="#FFD03C"/><stop offset="1" stop-color="#F1950B"/></linearGradient><linearGradient id="d" x1="23.319" y1="40.04" x2="22.971" y2="35.948" gradientUnits="userSpaceOnUse"><stop stop-color="#FFD03C"/><stop offset="1" stop-color="#F1950B"/></linearGradient><linearGradient id="e" x1="28.657" y1="39.584" x2="28.309" y2="35.493" gradientUnits="userSpaceOnUse"><stop stop-color="#FFD03C"/><stop offset="1" stop-color="#F1950B"/></linearGradient><linearGradient id="f" x1="25.743" y1="39.832" x2="25.394" y2="35.74" gradientUnits="userSpaceOnUse"><stop stop-color="#FFD03C"/><stop offset="1" stop-color="#F1950B"/></linearGradient><linearGradient id="g" x1="5.735" y1="25.694" x2="-.499" y2="33.188" gradientUnits="userSpaceOnUse"><stop stop-color="#0075C9"/><stop offset="1" stop-color="#0A39B5"/></linearGradient><linearGradient id="h" x1="34.12" y1="24.794" x2="43.576" y2="32.846" gradientUnits="userSpaceOnUse"><stop stop-color="#0075C9"/><stop offset="1" stop-color="#0A39B5"/></linearGradient><linearGradient id="i" x1="19.68" y1="16.882" x2="20.801" y2="35.719" gradientUnits="userSpaceOnUse"><stop stop-color="#0075C9"/><stop offset="1" stop-color="#0A39B5"/></linearGradient><linearGradient id="j" x1="12.116" y1="28.853" x2="29.28" y2="21.836" gradientUnits="userSpaceOnUse"><stop stop-color="#134F51"/><stop offset="1" stop-color="#0A39B5"/></linearGradient><linearGradient id="k" x1="12.661" y1="30.193" x2="29.826" y2="23.176" gradientUnits="userSpaceOnUse"><stop stop-color="#134F51"/><stop offset="1" stop-color="#0A39B5"/></linearGradient><linearGradient id="l" x1="13.211" y1="31.533" x2="30.375" y2="24.516" gradientUnits="userSpaceOnUse"><stop stop-color="#134F51"/><stop offset="1" stop-color="#0A39B5"/></linearGradient><linearGradient id="m" x1="11.568" y1="27.513" x2="28.732" y2="20.495" gradientUnits="userSpaceOnUse"><stop stop-color="#134F51"/><stop offset="1" stop-color="#0A39B5"/></linearGradient><linearGradient id="n" x1="11.018" y1="26.172" x2="28.182" y2="19.155" gradientUnits="userSpaceOnUse"><stop stop-color="#134F51"/><stop offset="1" stop-color="#0A39B5"/></linearGradient><linearGradient id="o" x1="13.545" y1="32.351" x2="30.709" y2="25.335" gradientUnits="userSpaceOnUse"><stop stop-color="#134F51"/><stop offset="1" stop-color="#0A39B5"/></linearGradient><linearGradient id="p" x1="14.092" y1="33.691" x2="31.256" y2="26.675" gradientUnits="userSpaceOnUse"><stop stop-color="#134F51"/><stop offset="1" stop-color="#0A39B5"/></linearGradient><linearGradient id="q" x1="12.997" y1="31.011" x2="30.161" y2="23.995" gradientUnits="userSpaceOnUse"><stop stop-color="#134F51"/><stop offset="1" stop-color="#0A39B5"/></linearGradient><linearGradient id="r" x1="12.45" y1="29.67" x2="29.614" y2="22.654" gradientUnits="userSpaceOnUse"><stop stop-color="#134F51"/><stop offset="1" stop-color="#0A39B5"/></linearGradient><linearGradient id="s" x1="14.948" y1="35.785" x2="32.112" y2="28.768" gradientUnits="userSpaceOnUse"><stop stop-color="#134F51"/><stop offset="1" stop-color="#0A39B5"/></linearGradient><linearGradient id="t" x1="14.402" y1="34.445" x2="31.566" y2="27.428" gradientUnits="userSpaceOnUse"><stop stop-color="#134F51"/><stop offset="1" stop-color="#0A39B5"/></linearGradient><linearGradient id="u" x1="13.853" y1="33.105" x2="31.017" y2="26.087" gradientUnits="userSpaceOnUse"><stop stop-color="#134F51"/><stop offset="1" stop-color="#0A39B5"/></linearGradient><linearGradient id="v" x1="20.003" y1="41.425" x2="20.003" y2="10.832" gradientUnits="userSpaceOnUse"><stop stop-color="#FFD03C"/><stop offset="1" stop-color="#F1950B"/></linearGradient><linearGradient id="w" x1="19.998" y1="41.37" x2="19.998" y2="12.252" gradientUnits="userSpaceOnUse"><stop stop-color="#FFD03C"/><stop offset="1" stop-color="#F1950B"/></linearGradient><linearGradient id="x" x1="20.002" y1="38.266" x2="20.002" y2="11.87" gradientUnits="userSpaceOnUse"><stop stop-color="#FFD03C"/><stop offset="1" stop-color="#F1950B"/></linearGradient><linearGradient id="b" x1="11.492" y1="39.742" x2="11.492" y2="35.824" gradientUnits="userSpaceOnUse"><stop stop-color="#FFD03C"/><stop offset="1" stop-color="#F1950B"/></linearGradient><linearGradient id="z" x1="20.94" y1="40.186" x2="17.756" y2="9.905" gradientUnits="userSpaceOnUse"><stop stop-color="#FFD03C"/><stop offset="1" stop-color="#F1950B"/></linearGradient><linearGradient id="A" x1="21.291" y1="38.872" x2="19.963" y2="11.173" gradientUnits="userSpaceOnUse"><stop stop-color="#FFD03C"/><stop offset="1" stop-color="#F1950B"/></linearGradient><linearGradient id="B" x1="19.047" y1="32.135" x2="13.604" y2="52.001" gradientUnits="userSpaceOnUse"><stop stop-color="#0075C9"/><stop offset="1" stop-color="#0A39B5"/></linearGradient><linearGradient id="C" x1="20.215" y1="30.622" x2="31.075" y2="58.694" gradientUnits="userSpaceOnUse"><stop stop-color="#0075C9"/><stop offset="1" stop-color="#0A39B5"/></linearGradient><linearGradient id="D" x1="19.68" y1="16.882" x2="20.801" y2="35.719" gradientUnits="userSpaceOnUse"><stop stop-color="#0075C9"/><stop offset="1" stop-color="#0A39B5"/></linearGradient><linearGradient id="F" x1="-.172" y1="18.542" x2="39.468" y2="23.459" gradientUnits="userSpaceOnUse"><stop stop-color="#134F51"/><stop offset="1" stop-color="#0A39B5"/></linearGradient><linearGradient id="G" x1="16.264" y1="2.75" x2="26.992" y2="36.017" gradientUnits="userSpaceOnUse"><stop stop-color="#0075C9"/><stop offset="1" stop-color="#0A39B5"/></linearGradient><linearGradient id="H" x1="20.148" y1="-1.702" x2="19.849" y2="23.426" gradientUnits="userSpaceOnUse"><stop stop-color="#0075C9"/><stop offset="1" stop-color="#0A39B5"/></linearGradient><linearGradient id="I" x1="7.753" y1="-1.85" x2="7.455" y2="23.279" gradientUnits="userSpaceOnUse"><stop stop-color="#0075C9"/><stop offset="1" stop-color="#0A39B5"/></linearGradient><linearGradient id="J" x1="32.35" y1="-1.557" x2="32.05" y2="23.572" gradientUnits="userSpaceOnUse"><stop stop-color="#0075C9"/><stop offset="1" stop-color="#0A39B5"/></linearGradient><linearGradient id="K" x1="3.11" y1="12.877" x2="36.89" y2="12.877" gradientUnits="userSpaceOnUse"><stop stop-color="#0075C9"/><stop offset="1" stop-color="#0092ED"/></linearGradient><linearGradient id="L" x1="4.438" y1="21.306" x2="27.377" y2="-3.733" gradientUnits="userSpaceOnUse"><stop stop-color="#134F51"/><stop offset="1" stop-color="#0A39B5"/></linearGradient><linearGradient id="M" x1="5.497" y1="19.977" x2="25.159" y2="-1.485" gradientUnits="userSpaceOnUse"><stop stop-color="#FFF1CB"/><stop offset="1" stop-color="#D8E2FC"/></linearGradient><linearGradient id="N" x1="7.921" y1="18.105" x2="15.7" y2="7.614" gradientUnits="userSpaceOnUse"><stop stop-color="#0075C9"/><stop offset="1" stop-color="#7DB327"/></linearGradient><linearGradient id="O" x1="8.319" y1="12.009" x2="16.841" y2="12.009" gradientUnits="userSpaceOnUse"><stop stop-color="#071F20"/><stop offset="1" stop-color="#072984"/></linearGradient><linearGradient id="P" x1="5.212" y1="19.715" x2="24.873" y2="-1.746" gradientUnits="userSpaceOnUse"><stop stop-color="#FFF1CB"/><stop offset="1" stop-color="#D8E2FC"/></linearGradient><linearGradient id="Q" x1="20.538" y1="21.306" x2="43.478" y2="-3.733" gradientUnits="userSpaceOnUse"><stop stop-color="#134F51"/><stop offset="1" stop-color="#0A39B5"/></linearGradient><linearGradient id="R" x1="16.526" y1="29.086" x2="33.695" y2="7.086" gradientUnits="userSpaceOnUse"><stop stop-color="#FFF1CB"/><stop offset="1" stop-color="#D8E2FC"/></linearGradient><linearGradient id="S" x1="23.747" y1="19.095" x2="32.44" y2="6.874" gradientUnits="userSpaceOnUse"><stop stop-color="#0075C9"/><stop offset="1" stop-color="#7DB327"/></linearGradient><linearGradient id="T" x1="23.156" y1="12.009" x2="31.774" y2="12.009" gradientUnits="userSpaceOnUse"><stop stop-color="#071F20"/><stop offset="1" stop-color="#072984"/></linearGradient><linearGradient id="U" x1="16.47" y1="29.041" x2="33.638" y2="7.04" gradientUnits="userSpaceOnUse"><stop stop-color="#FFF1CB"/><stop offset="1" stop-color="#D8E2FC"/></linearGradient><linearGradient id="V" x1="20.013" y1="16.39" x2="19.884" y2="20.001" gradientUnits="userSpaceOnUse"><stop stop-color="#0075C9"/><stop offset="1" stop-color="#0A39B5"/></linearGradient><linearGradient id="X" x1="16.986" y1="16.772" x2="20.001" y2="16.772" gradientUnits="userSpaceOnUse"><stop stop-color="#134F51"/><stop offset="1" stop-color="#0A39B5"/></linearGradient></defs></svg>