<?xml version="1.0" encoding="UTF-8"?>
<svg fill="none" viewBox="0 0 16 16" xmlns="http://www.w3.org/2000/svg">
    <g clip-path="url(#a)">
        <path d="m10.66 3.3008 0.3537-0.35337-0.3537 0.35337zm2.0548 2.057-0.3537 0.35337 0.3537-0.35337zm-6.8888 7.5956-0.35373 0.3534 0.35373-0.3534zm-2.7445-2.7472 0.35374-0.35341-0.35374 0.35341zm8.6302-0.20925-0.1758-0.46805 0.1758 0.46805zm-1.2781 0.48025 0.1759 0.468-0.1759-0.468zm-4.8784-4.8886-0.46948-0.17201 0.46948 0.17201zm0.46297-1.2636 0.46948 0.17202v-1e-5l-0.46948-0.17201zm-2.1211 2.7914 0.13289 0.48202-0.13289-0.48202zm0.97109-0.35889-0.29214-0.40577 0.29214 0.40577zm0.24943-0.22983 0.38056 0.32431-0.38056-0.32431zm4.3835 4.3934 0.32731 0.378-0.32731-0.378zm-0.58029 1.2138-0.48209-0.1327 0.48209 0.1327zm0.35755-0.9698-0.40624-0.2914 0.40624 0.2914zm-7.4656-2.6609-0.49999 0.00316 0.49999-0.00316zm0.14132-0.53543-0.43328-0.24953 0.43328 0.24953zm5.5832 6.2607 7.5e-4 -0.5-7.5e-4 0.5zm0.52535-0.139-0.24782-0.4342h-1e-5l0.24783 0.4342zm-0.26401-12.732 0.10772 0.48826-0.10772-0.48826zm-6.8186 12.956c-0.19516 0.1954-0.195 0.512 3.6e-4 0.7071 0.19536 0.1952 0.51194 0.1951 0.70711-3e-4l-0.70747-0.7068zm3.8096-2.3985c0.19516-0.1954 0.195-0.512-3.6e-4 -0.7071-0.19537-0.1952-0.51195-0.195-0.70711 3e-4l0.70747 0.7068zm5.5167-8.2612 2.0548 2.0569 0.7075-0.70674-2.0549-2.057-0.7074 0.70675zm-4.1266 8.9457-2.7444-2.7472-0.70747 0.70671 2.7445 2.7473 0.70746-0.7068zm5.3562-3.0711-1.2781 0.4802 0.3517 0.9361 1.2781-0.4802-0.3517-0.9361zm-5.5112-3.7683 0.46297-1.2636-0.93896-0.34403-0.46297 1.2636 0.93896 0.34402zm-1.9947 1.8378c0.4743-0.13077 0.83521-0.22266 1.1303-0.43513l-0.58427-0.81155c-0.11529 0.083-0.26497 0.13187-0.81184 0.28265l0.26578 0.96403zm1.0557-2.1818c-0.19531 0.53304-0.2564 0.67851-0.34866 0.78677l0.76111 0.64862c0.23583-0.27673 0.35709-0.62898 0.52651-1.0914l-0.93896-0.34402zm0.07459 1.7467c0.12473-0.0898 0.23816-0.19432 0.33786-0.3113l-0.76111-0.64862c-0.04753 0.05577-0.1016 0.10558-0.16102 0.14837l0.58427 0.81155zm5.0975 2.8458c-0.45941 0.1726-0.80963 0.2964-1.084 0.534l0.65462 0.756c0.10723-0.0929 0.2515-0.1549 0.7811-0.3539l-0.3517-0.9361zm-0.85491 2.2584c0.15018-0.5459 0.19891-0.6955 0.28171-0.8109l-0.81249-0.5829c-0.21158 0.2948-0.3031 0.655-0.4334 1.1285l0.96418 0.2653zm-0.22911-1.7244c-0.11316 0.098-0.21441 0.2089-0.30167 0.3306l0.81249 0.5829c0.04161-0.058 0.08988-0.1109 0.1438-0.1575l-0.65462-0.756zm-5.7385-0.69031c-0.43076-0.4312-0.72287-0.72469-0.91242-0.96284-0.19021-0.23898-0.20985-0.34243-0.21014-0.38888l-0.99998 0.00632c0.00245 0.38813 0.19519 0.71319 0.42769 1.0053 0.23316 0.29295 0.57409 0.63311 0.98738 1.0468l0.70747-0.70671zm0.32894-3.2184c-0.56348 0.15535-1.0278 0.28257-1.3752 0.42201-0.34637 0.13905-0.67454 0.32646-0.86829 0.66288l0.86657 0.49907c0.02308-0.04008 0.09103-0.12023 0.37428-0.23394 0.28228-0.11333 0.68105-0.22406 1.2684-0.38599l-0.26578-0.96403zm-1.4515 1.8667c-6.3e-4 -0.09923 0.02514-0.19682 0.07462-0.28273l-0.86657-0.49907c-0.13799 0.23961-0.20978 0.51162-0.20803 0.78812l0.99998-0.00632zm3.1596 4.8057c0.41591 0.4163 0.75791 0.7598 1.0525 0.9944 0.2937 0.2339 0.62095 0.4277 1.0118 0.4283l0.0015-1c-0.04631-1e-4 -0.14998-0.0192-0.39026-0.2105-0.23944-0.1908-0.5345-0.485-0.96801-0.919l-0.70746 0.7068zm2.9664-1.3046c-0.16278 0.5917-0.27413 0.9935-0.38823 1.2777-0.11451 0.2853-0.19532 0.3533-0.2357 0.3764l0.49564 0.8685c0.33936-0.1937 0.52817-0.5238 0.66808-0.8724 0.14033-0.3495 0.2682-0.8172 0.42439-1.3849l-0.96418-0.2653zm-0.90222 2.7273c0.27142 4e-4 0.5382-0.0702 0.77393-0.2047l-0.49565-0.8685c-0.08434 0.0481-0.17975 0.0733-0.27677 0.0732l-0.00151 1zm4.8246-9.0183c0.709 0.70969 1.1995 1.2026 1.5005 1.6087 0.2957 0.39905 0.3297 0.6114 0.2936 0.77842l0.9774 0.21135c0.1265-0.58536-0.1067-1.0982-0.4676-1.5851-0.3556-0.47987-0.9109-1.0339-1.5964-1.7201l-0.7075 0.70674zm-0.4735 4.7538c0.9076-0.341 1.6421-0.61558 2.1642-0.90533 0.5298-0.29408 0.9542-0.66453 1.0808-1.25l-0.9774-0.21135c-0.0361 0.16693-0.1547 0.34608-0.5887 0.58695-0.4418 0.2452-1.0919 0.49089-2.0306 0.84359l0.3517 0.9361zm-0.8739-7.5175c-0.6906-0.69129-1.2479-1.2511-1.7302-1.6092-0.48915-0.36316-1.0047-0.59817-1.5926-0.46847l0.21544 0.97651c0.16649-0.03673 0.37926-0.00343 0.78105 0.29487 0.40861 0.30336 0.90479 0.79817 1.6189 1.513l0.7074-0.70675zm-4.526 1.5495c0.34773-0.94909 0.59016-1.6069 0.83353-2.0542 0.23935-0.43984 0.41854-0.55972 0.58511-0.59647l-0.21544-0.97651c-0.58778 0.12968-0.95678 0.55976-1.248 1.095-0.28723 0.52784-0.55783 1.2702-0.89412 2.1881l0.93896 0.34402zm-4.8002 10.524 3.1022-3.1053-0.70747-0.7068-3.1022 3.1053 0.70747 0.7068z" fill="#6E7583"/>
    </g>
    <defs>
        <clipPath id="a">
            <rect width="16" height="16" fill="#fff"/>
        </clipPath>
    </defs>
</svg>
