<svg width="18" height="18" viewBox="0 0 18 18" fill="none" xmlns="http://www.w3.org/2000/svg">
<g clip-path="url(#clip0_2052_29279)">
<path d="M14.3037 6.02672L11.992 3.71265C10.4117 2.13076 9.62159 1.33981 8.77294 1.52705C7.92429 1.71428 7.53953 2.76444 6.76999 4.86477L6.24915 6.28633C6.04399 6.84626 5.94142 7.12623 5.75687 7.34279C5.67405 7.43996 5.57984 7.52677 5.47625 7.60135C5.24539 7.76755 4.95819 7.84673 4.38378 8.0051C3.08911 8.36203 2.44178 8.5405 2.19784 8.96406C2.09239 9.14717 2.03751 9.35506 2.03885 9.56642C2.04193 10.0553 2.51671 10.5306 3.46627 11.4811L6.55378 14.5717C7.50937 15.5283 7.98717 16.0066 8.47893 16.0073C8.68618 16.0076 8.88991 15.9538 9.06995 15.851C9.49717 15.6072 9.67659 14.9551 10.0354 13.6509C10.1932 13.0774 10.2721 12.7907 10.4377 12.5599C10.5102 12.4589 10.5943 12.3667 10.6883 12.2854C10.9029 12.0995 11.1811 11.995 11.7374 11.786L13.1752 11.2457C15.2523 10.4653 16.2909 10.0751 16.4739 9.22869C16.6569 8.38228 15.8725 7.59709 14.3037 6.02672Z" fill="#C1C4CA"/>
<path d="M11.992 3.71265L12.5226 3.18259V3.18259L11.992 3.71265ZM14.3037 6.02672L13.7731 6.55678L14.3037 6.02672ZM6.55378 14.5717L6.02318 15.1018H6.02318L6.55378 14.5717ZM3.46627 11.4811L3.99687 10.951L3.46627 11.4811ZM13.1752 11.2457L12.9114 10.5436L13.1752 11.2457ZM11.7374 11.786L12.0011 12.488H12.0011L11.7374 11.786ZM6.24915 6.28633L5.54493 6.02831L6.24915 6.28633ZM6.76999 4.86477L7.47421 5.12279V5.12279L6.76999 4.86477ZM4.38378 8.0051L4.58312 8.72812H4.58312L4.38378 8.0051ZM5.47625 7.60135L5.03804 6.99268L5.03804 6.99268L5.47625 7.60135ZM5.75687 7.34279L6.3277 7.82925L6.3277 7.82925L5.75687 7.34279ZM10.6883 12.2854L11.1792 12.8523L11.1792 12.8523L10.6883 12.2854ZM10.0354 13.6509L9.3123 13.4519L9.3123 13.4519L10.0354 13.6509ZM10.4377 12.5599L9.82831 12.1227L9.82831 12.1227L10.4377 12.5599ZM2.03885 9.56642L1.28886 9.57115V9.57115L2.03885 9.56642ZM2.19784 8.96406L1.54792 8.58976H1.54792L2.19784 8.96406ZM8.47893 16.0073L8.48006 15.2573H8.48005L8.47893 16.0073ZM9.06995 15.851L8.69822 15.1996L8.69822 15.1996L9.06995 15.851ZM8.77294 1.52705L8.93453 2.25943L8.77294 1.52705ZM0.9694 15.9699C0.676656 16.263 0.676898 16.7379 0.96994 17.0306C1.26298 17.3233 1.73786 17.3231 2.0306 17.0301L0.9694 15.9699ZM5.52052 13.5366C5.81326 13.2435 5.81302 12.7687 5.51998 12.4759C5.22694 12.1832 4.75206 12.1834 4.45932 12.4765L5.52052 13.5366ZM11.4614 4.24271L13.7731 6.55678L14.8343 5.49666L12.5226 3.18259L11.4614 4.24271ZM7.08438 14.0417L3.99687 10.951L2.93567 12.0112L6.02318 15.1018L7.08438 14.0417ZM12.9114 10.5436L11.4736 11.0839L12.0011 12.488L13.439 11.9478L12.9114 10.5436ZM6.95337 6.54435L7.47421 5.12279L6.06577 4.60675L5.54493 6.02831L6.95337 6.54435ZM4.58312 8.72812C5.1031 8.58476 5.54872 8.47332 5.91446 8.21001L5.03804 6.99268C4.94206 7.06178 4.81328 7.1087 4.18444 7.28207L4.58312 8.72812ZM5.54493 6.02831C5.32036 6.64124 5.2629 6.76612 5.18603 6.85632L6.3277 7.82925C6.61993 7.48634 6.76763 7.05129 6.95337 6.54435L5.54493 6.02831ZM5.91446 8.21001C6.06702 8.10018 6.20576 7.97233 6.3277 7.82925L5.18603 6.85632C5.14235 6.90758 5.09265 6.95336 5.03804 6.99268L5.91446 8.21001ZM11.4736 11.0839C10.9699 11.2731 10.5373 11.4239 10.1973 11.7184L11.1792 12.8523C11.2685 12.775 11.3922 12.7168 12.0011 12.488L11.4736 11.0839ZM10.7586 13.8498C10.9313 13.2222 10.978 13.0933 11.047 12.9972L9.82831 12.1227C9.56614 12.4881 9.45515 12.9327 9.3123 13.4519L10.7586 13.8498ZM10.1973 11.7184C10.0589 11.8383 9.93504 11.974 9.82831 12.1227L11.047 12.9972C11.0853 12.9439 11.1297 12.8952 11.1792 12.8523L10.1973 11.7184ZM3.99687 10.951C3.50899 10.4627 3.18952 10.1412 2.98445 9.88358C2.88581 9.75966 2.83503 9.67618 2.80934 9.62112C2.79731 9.59532 2.79245 9.57922 2.79049 9.57126C2.78951 9.56725 2.78913 9.56479 2.78899 9.56363C2.78884 9.5625 2.78883 9.56194 2.78883 9.56168L1.28886 9.57115C1.29202 10.0719 1.54132 10.4791 1.81081 10.8177C2.08129 11.1575 2.47399 11.549 2.93567 12.0112L3.99687 10.951ZM4.18444 7.28207C3.555 7.45561 3.02031 7.60183 2.61737 7.76359C2.21587 7.92477 1.79789 8.15572 1.54792 8.58976L2.84776 9.33836C2.84788 9.33816 2.84815 9.3377 2.84882 9.33681C2.8495 9.3359 2.85102 9.33397 2.85382 9.331C2.8594 9.3251 2.87152 9.31355 2.89466 9.2971C2.94407 9.262 3.02933 9.21457 3.1762 9.1556C3.48158 9.03301 3.91789 8.91152 4.58312 8.72812L4.18444 7.28207ZM2.78883 9.56168C2.78834 9.48328 2.8087 9.4062 2.84776 9.33836L1.54792 8.58976C1.37608 8.88813 1.28669 9.22685 1.28886 9.57115L2.78883 9.56168ZM6.02318 15.1018C6.48778 15.5669 6.88134 15.9625 7.22304 16.2346C7.56347 16.5058 7.97354 16.7566 8.47781 16.7573L8.48005 15.2573C8.47981 15.2573 8.47929 15.2573 8.47822 15.2572C8.47712 15.2571 8.47472 15.2567 8.47078 15.2558C8.46295 15.2539 8.44692 15.2491 8.4211 15.2371C8.36596 15.2115 8.28214 15.1606 8.15755 15.0613C7.89851 14.855 7.57537 14.5332 7.08438 14.0417L6.02318 15.1018ZM9.3123 13.4519C9.12793 14.122 9.00576 14.5617 8.88231 14.8692C8.82293 15.0172 8.77513 15.1029 8.73976 15.1526C8.7232 15.1758 8.71157 15.188 8.70565 15.1935C8.70266 15.1964 8.70073 15.1979 8.69982 15.1985C8.69892 15.1992 8.69845 15.1995 8.69822 15.1996L9.44169 16.5024C9.87953 16.2525 10.1122 15.832 10.2744 15.428C10.4371 15.0225 10.5841 14.484 10.7586 13.8498L9.3123 13.4519ZM8.4778 16.7573C8.81584 16.7578 9.14811 16.6699 9.44169 16.5024L8.69822 15.1996C8.63171 15.2376 8.55651 15.2574 8.48006 15.2573L8.4778 16.7573ZM13.7731 6.55678C14.5751 7.35958 15.1148 7.9026 15.4431 8.34572C15.7636 8.77816 15.7645 8.96073 15.7408 9.07018L17.2069 9.3872C17.3663 8.65024 17.0665 8.01701 16.6483 7.45266C16.238 6.89899 15.6011 6.26423 14.8343 5.49666L13.7731 6.55678ZM13.439 11.9478C14.4542 11.5664 15.2964 11.252 15.8988 10.9177C16.5128 10.5769 17.0476 10.1243 17.2069 9.3872L15.7408 9.07018C15.7172 9.17951 15.6411 9.34519 15.1709 9.60619C14.6889 9.87368 13.9733 10.1447 12.9114 10.5436L13.439 11.9478ZM12.5226 3.18259C11.7501 2.4093 11.1116 1.76736 10.5552 1.35424C9.98852 0.933529 9.35171 0.631316 8.61136 0.794659L8.93453 2.25943C9.04282 2.23554 9.22541 2.23518 9.66104 2.55861C10.1069 2.88963 10.6536 3.4341 11.4614 4.24271L12.5226 3.18259ZM7.47421 5.12279C7.86756 4.04921 8.135 3.32503 8.40058 2.83698C8.66011 2.36005 8.82611 2.28335 8.93453 2.25943L8.61136 0.794659C7.87113 0.957973 7.42042 1.49998 7.08302 2.12002C6.75167 2.72894 6.44196 3.58001 6.06577 4.60675L7.47421 5.12279ZM2.0306 17.0301L5.52052 13.5366L4.45932 12.4765L0.9694 15.9699L2.0306 17.0301Z" fill="#C1C4CA"/>
</g>
<defs>
<clipPath id="clip0_2052_29279">
<rect width="18" height="18" fill="white"/>
</clipPath>
</defs>
</svg>
