<svg xmlns="http://www.w3.org/2000/svg" width="38" height="40" fill="none"><path fill="url(#a)" d="M9.9 39.48c-.37 0-.7-.13-.95-.38-.27-.26-.43-.6-.43-1.02 0-.38.13-.73.37-1.01l5.14-5.57c.28-.29.61-.45 1.01-.45a1.39 1.39 0 0 1 1.38 1.4c0 .38-.12.73-.37 1.01l-5.14 5.57c-.28.29-.61.45-1 .45Z"/><path fill="url(#b)" d="M1.38 31.12c-.37 0-.7-.16-.98-.41-.28-.25-.4-.63-.4-1.01s.15-.73.4-1.02l4.83-5.03c.25-.29.61-.41.98-.41s.7.15.98.4c.28.26.4.64.4 1.02s-.16.73-.4 1.01l-4.83 5.04c-.25.25-.62.41-.98.41Z"/><path fill="url(#c)" d="M1.87 39.4c-.37 0-.7-.16-.99-.42-.27-.25-.4-.63-.4-1.01s.13-.73.4-1.02l9.72-10.2c.28-.28.62-.4.99-.4s.7.16.98.4c.55.55.55 1.47.03 2.04L2.88 39c-.27.26-.63.4-1.01.4Z"/><path fill="url(#d)" d="M7.73 18.6c3.14-2.83 12.83-10.8 23.4-11.9a.46.46 0 0 1 .5.53C31.26 9.9 29.2 20.7 20.06 30.32a.85.85 0 0 1-1.41-.3l-2.1-4.94-2.6.7a.7.7 0 0 1-.84-.9l.71-2.5-5.84-2.29c-.59-.22-.74-1.05-.25-1.5Z"/><path fill="url(#e)" d="m36.95 27.97-10.46.19c-.37 0-.7.19-.92.54-1.05 1.74-4.55 7.46-7.3 9.97-.64.6-1.62.44-2.08-.32a9.3 9.3 0 0 1-.22-.38 36.21 36.21 0 0 0-2-3.9c-.73-1.3-2.21-3.15-3.07-4.26a29.76 29.76 0 0 0-4.4-4.16A21.32 21.32 0 0 0 1 22.63a1.52 1.52 0 0 1-.5-2.5c2.31-2.26 6.25-5.98 8.7-7.25.38-.19.6-.6.6-1.01l-.2-10.2c0-.82.8-1.4 1.54-1.04 2.22.98 6.37 3.08 8.74 5.8.27.33.7.45 1.1.33 1.79-.54 6.86-2 11.78-2.29.68-.03 1.23.54 1.14 1.24-.24 2.41-.89 7.62-2 11.05-.12.35-.06.73.19 1.05 1.07 1.4 4.24 5.65 5.75 8.5.43.74-.06 1.66-.9 1.66Z"/><path fill="#FFFFFC" d="m15.3 25.43-1.35.35a.7.7 0 0 1-.83-.9l.7-2.5-5.84-2.29a.92.92 0 0 1-.27-1.52c3.13-2.83 12.82-10.8 23.4-11.91a.46.46 0 0 1 .49.54c-.37 2.67-2.43 13.46-11.56 23.08a.85.85 0 0 1-1.42-.28l-2.09-4.96-1.23.39Z"/><path fill="url(#f)" d="M23.35 17.93a3.19 3.19 0 0 0 3.14-3.24c0-1.79-1.4-3.24-3.14-3.24a3.19 3.19 0 0 0-3.13 3.24c0 1.8 1.4 3.24 3.13 3.24Z"/><defs><linearGradient id="a" x1="7.85" x2="14.35" y1="40.58" y2="34.06" gradientUnits="userSpaceOnUse"><stop offset=".19" stop-color="#25E2EA"/><stop offset="1" stop-color="#19A6D1"/></linearGradient><linearGradient id="b" x1="-1.07" x2="6.88" y1="32.55" y2="24.55" gradientUnits="userSpaceOnUse"><stop offset=".4" stop-color="#E55EC4"/><stop offset="1" stop-color="#8225D0"/></linearGradient><linearGradient id="c" x1="8.84" x2="3.08" y1="31.1" y2="35.48" gradientUnits="userSpaceOnUse"><stop stop-color="#A443FD"/><stop offset="1" stop-color="#A959F3"/></linearGradient><linearGradient id="d" x1="6.7" x2="66.02" y1="33.53" y2="-35.73" gradientUnits="userSpaceOnUse"><stop offset=".1" stop-color="#fff" stop-opacity=".7"/><stop offset=".48" stop-color="#fff" stop-opacity="0"/></linearGradient><linearGradient id="e" x1="36.88" x2="8.53" y1="2.85" y2="26.06" gradientUnits="userSpaceOnUse"><stop offset=".17" stop-color="#52BFCA"/><stop offset=".92" stop-color="#7238DF"/></linearGradient><linearGradient id="f" x1="33.74" x2="10.78" y1="2.01" y2="28.23" gradientUnits="userSpaceOnUse"><stop stop-color="#52BFCA"/><stop offset="1" stop-color="#7238DF"/></linearGradient></defs></svg>