<svg xmlns="http://www.w3.org/2000/svg" width="105" height="20" fill="none"><path fill="#d6d4d4" d="M11 18.14a8.14 8.14 0 1 0 0-16.28 8.14 8.14 0 0 0 0 16.28Z"/><path fill="#fff" fill-rule="evenodd" d="m11 12.96-2.1 1.2a.81.81 0 0 1-1.2-.88l.48-2.37L6.4 9.3a.81.81 0 0 1 .45-1.41l2.4-.27 1-2.2a.81.81 0 0 1 1.49 0l1 2.2 2.4.27a.81.81 0 0 1 .45 1.4l-1.78 1.63.49 2.37a.81.81 0 0 1-1.2.87l-2.1-1.2Z" clip-rule="evenodd"/><path fill="#d6d4d4" d="M32 18.14a8.14 8.14 0 1 0 0-16.28 8.14 8.14 0 0 0 0 16.28Z"/><path fill="#fff" fill-rule="evenodd" d="m32 12.96-2.1 1.2a.81.81 0 0 1-1.2-.88l.48-2.37L27.4 9.3a.81.81 0 0 1 .45-1.41l2.4-.27 1-2.2a.81.81 0 0 1 1.49 0l1 2.2 2.4.27a.81.81 0 0 1 .45 1.4l-1.78 1.63.49 2.37a.81.81 0 0 1-1.2.87l-2.1-1.2Z" clip-rule="evenodd"/><path fill="#d6d4d4" d="M53 18.14a8.14 8.14 0 1 0 0-16.28 8.14 8.14 0 0 0 0 16.28Z"/><path fill="#fff" fill-rule="evenodd" d="m53 12.96-2.1 1.2a.81.81 0 0 1-1.2-.88l.48-2.37L48.4 9.3a.81.81 0 0 1 .45-1.41l2.4-.27 1-2.2a.81.81 0 0 1 1.49 0l1 2.2 2.4.27a.81.81 0 0 1 .45 1.4l-1.78 1.63.49 2.37a.81.81 0 0 1-1.2.87l-2.1-1.2Z" clip-rule="evenodd"/><path fill="#d6d4d4" d="M74 18.14a8.14 8.14 0 1 0 0-16.28 8.14 8.14 0 0 0 0 16.28Z"/><path fill="#fff" fill-rule="evenodd" d="m74 12.96-2.1 1.2a.81.81 0 0 1-1.2-.88l.48-2.37L69.4 9.3a.81.81 0 0 1 .45-1.41l2.4-.27 1-2.2a.81.81 0 0 1 1.49 0l1 2.2 2.4.27a.81.81 0 0 1 .45 1.4l-1.78 1.63.49 2.37a.81.81 0 0 1-1.2.87l-2.1-1.2Z" clip-rule="evenodd"/><path fill="#d6d4d4" d="M95 18.14a8.14 8.14 0 1 0 0-16.28 8.14 8.14 0 0 0 0 16.28Z"/><path fill="#fff" fill-rule="evenodd" d="m95 12.96-2.1 1.2a.81.81 0 0 1-1.2-.88l.48-2.37L90.4 9.3a.81.81 0 0 1 .45-1.41l2.4-.27 1-2.2a.81.81 0 0 1 1.49 0l1 2.2 2.4.27a.81.81 0 0 1 .45 1.4l-1.78 1.63.49 2.37a.81.81 0 0 1-1.2.87l-2.1-1.2Z" clip-rule="evenodd"/></svg>
