<svg xmlns="http://www.w3.org/2000/svg" width="107" height="22" fill="none"><path fill="#FF7800" d="M11.13 1.4c.2-.38.74-.38.94 0l2.6 5.01c.07.15.21.26.38.28l5.6.9c.43.07.6.6.3.9l-4 3.98a.53.53 0 0 0-.15.46l.87 5.55a.53.53 0 0 1-.76.56l-5.08-2.55a.53.53 0 0 0-.47 0l-5.08 2.55a.53.53 0 0 1-.76-.56l.87-5.55a.53.53 0 0 0-.14-.46l-4-3.98a.53.53 0 0 1 .29-.9l5.6-.9c.17-.02.31-.13.39-.28l2.6-5ZM32.33 1.4c.2-.38.74-.38.94 0l2.6 5.01c.07.15.22.26.38.28l5.61.9c.43.07.6.6.29.9l-4 3.98a.53.53 0 0 0-.15.46l.87 5.55a.53.53 0 0 1-.75.56l-5.08-2.55a.53.53 0 0 0-.48 0l-5.07 2.55a.53.53 0 0 1-.76-.56l.87-5.55a.53.53 0 0 0-.15-.46l-4-3.98a.53.53 0 0 1 .3-.9l5.6-.9c.16-.02.3-.13.38-.28l2.6-5ZM53.53 1.4c.2-.38.74-.38.93 0l2.6 5.01c.08.15.22.26.39.28l5.6.9c.43.07.6.6.3.9l-4 3.98a.53.53 0 0 0-.15.46l.87 5.55a.53.53 0 0 1-.76.56l-5.08-2.55a.53.53 0 0 0-.47 0l-5.08 2.55a.53.53 0 0 1-.76-.56l.87-5.55a.53.53 0 0 0-.15-.46l-4-3.98a.53.53 0 0 1 .3-.9l5.6-.9c.17-.02.31-.13.39-.28l2.6-5ZM74.73 1.4c.2-.38.74-.38.94 0l2.6 5.01c.07.15.22.26.38.28l5.6.9c.43.07.6.6.3.9l-4 3.98a.53.53 0 0 0-.15.46l.87 5.55a.53.53 0 0 1-.76.56l-5.08-2.55a.53.53 0 0 0-.47 0l-5.08 2.55a.53.53 0 0 1-.75-.56l.87-5.55a.53.53 0 0 0-.15-.46l-4-3.98a.53.53 0 0 1 .29-.9l5.6-.9c.17-.02.31-.13.4-.28l2.59-5ZM95.93 1.4c.2-.38.74-.38.93 0l2.6 5.01c.08.15.22.26.39.28l5.6.9c.43.07.6.6.3.9l-4 3.98a.53.53 0 0 0-.15.46l.87 5.55a.53.53 0 0 1-.76.56l-5.08-2.55a.53.53 0 0 0-.47 0l-5.08 2.55a.53.53 0 0 1-.76-.56l.87-5.55a.53.53 0 0 0-.15-.46l-4-3.98a.53.53 0 0 1 .3-.9l5.6-.9c.17-.02.3-.13.39-.28l2.6-5Z"/></svg>