<svg width="100" height="17" fill="none" xmlns="http://www.w3.org/2000/svg"><path d="M0 .5h16v16H0V.5Z" fill="#00B67A"/><path fill-rule="evenodd" clip-rule="evenodd" d="M9.316 7.245h4.296l-3.473 2.53-2.116 1.542-.012.003.004.003-.024.018-3.473 2.509 1.325-4.075-3.473-2.53h4.296L7.991 3.17l1.325 4.075Zm-1.301 4.078 3.45 2.507-1.025-3.152-2.417.64-.008.005Z" fill="#fff"/><path d="M21 .5h16v16H21V.5Z" fill="#00B67A"/><path fill-rule="evenodd" clip-rule="evenodd" d="M30.312 7.245h4.296l-3.473 2.53-2.116 1.542-.012.003.004.003-.024.018-3.473 2.509 1.325-4.075-3.473-2.53h4.296l1.325-4.075 1.325 4.075Zm-1.3 4.078 3.448 2.507-1.024-3.152-2.417.64-.008.005Z" fill="#fff"/><path d="M42 .5h16v16H42V.5Z" fill="#00B67A"/><path fill-rule="evenodd" clip-rule="evenodd" d="M51.312 7.245h4.296l-3.473 2.53-2.116 1.542-.012.003.004.003-.024.018-3.473 2.509 1.325-4.075-3.473-2.53h4.296l1.325-4.075 1.325 4.075Zm-1.3 4.078 3.448 2.507-1.023-3.152-2.418.64-.008.005Z" fill="#fff"/><path d="M63 .5h16v16H63V.5Z" fill="#00B67A"/><path fill-rule="evenodd" clip-rule="evenodd" d="M72.312 7.245h4.296l-3.473 2.53-2.116 1.542-.012.003.004.003-.024.018-3.473 2.509 1.325-4.075-3.473-2.53h4.296l1.325-4.075 1.325 4.075Zm-1.3 4.078 3.448 2.507-1.023-3.152-2.418.64-.008.005Z" fill="#fff"/><path d="M84 .5h16v16H84V.5Z" fill="#00B67A"/><path fill-rule="evenodd" clip-rule="evenodd" d="M93.316 7.245h4.296l-3.473 2.53-2.116 1.542-.012.003.004.003-.024.018-3.473 2.509 1.325-4.075-3.473-2.53h4.296l1.325-4.075 1.325 4.075Zm-1.3 4.078 3.448 2.507-1.024-3.152-2.417.64-.008.005Z" fill="#fff"/></svg>