<svg xmlns="http://www.w3.org/2000/svg" width="105" height="20" fill="none"><path fill="#d6d4d4" fill-rule="evenodd" d="M21 7.88h-7.65L11 1 8.63 7.87H1l6.18 4.25L4.81 19 11 14.75 17.17 19l-2.36-6.87L21 7.88ZM42 7.88h-7.65L32 1l-2.36 6.87H22l6.19 4.25L25.8 19 32 14.75 38.17 19l-2.36-6.87L42 7.88ZM63 7.88h-7.65L53 1l-2.36 6.87H43l6.18 4.25L46.81 19 53 14.75 59.17 19l-2.36-6.87L63 7.88ZM84 7.88h-7.65L74 1l-2.36 6.87H64l6.18 4.25L67.81 19 74 14.75 80.17 19l-2.36-6.87L84 7.88ZM105 7.88h-7.65L95 1l-2.36 6.87H85l6.19 4.25L88.8 19 95 14.75l6.18 4.25-2.36-6.87L105 7.88Z" clip-rule="evenodd"/></svg>
