<svg width="100" height="16" viewBox="0 0 100 16" fill="none" xmlns="http://www.w3.org/2000/svg">
<path d="M0 0H16V16H0V0Z" fill="#DADCE2"/>
<path fill-rule="evenodd" clip-rule="evenodd" d="M9.31619 6.7452H13.6123L10.1393 9.27468L8.02297 10.8174L8.0113 10.8205L8.015 10.8232L7.99122 10.8406L4.51817 13.35L5.84314 9.27468L2.37012 6.7452H6.66625L7.99122 2.66992L9.31619 6.7452ZM8.015 10.8232L11.4642 13.3299L10.4404 10.1781L8.02297 10.8174L8.015 10.8232Z" fill="white"/>
<path d="M21 0H37V16H21V0Z" fill="#DADCE2"/>
<path fill-rule="evenodd" clip-rule="evenodd" d="M30.3123 6.7452H34.6084L31.1353 9.27468L29.019 10.8174L29.0074 10.8205L29.0111 10.8232L28.9873 10.8406L25.5143 13.35L26.8392 9.27468L23.3662 6.7452H27.6623L28.9873 2.66992L30.3123 6.7452ZM29.0111 10.8232L32.4603 13.3299L31.4365 10.1781L29.019 10.8174L29.0111 10.8232Z" fill="white"/>
<path d="M42 0H58V16H42V0Z" fill="#DADCE2"/>
<path fill-rule="evenodd" clip-rule="evenodd" d="M51.3123 6.7452H55.6084L52.1353 9.27468L50.019 10.8174L50.0074 10.8205L50.0111 10.8232L49.9873 10.8406L46.5143 13.35L47.8392 9.27468L44.3662 6.7452H48.6623L49.9873 2.66992L51.3123 6.7452ZM50.0111 10.8232L53.4603 13.3299L52.4365 10.1781L50.019 10.8174L50.0111 10.8232Z" fill="white"/>
<path d="M63 0H79V16H63V0Z" fill="#DADCE2"/>
<path fill-rule="evenodd" clip-rule="evenodd" d="M72.3123 6.7452H76.6084L73.1353 9.27468L71.019 10.8174L71.0074 10.8205L71.0111 10.8232L70.9873 10.8406L67.5143 13.35L68.8392 9.27468L65.3662 6.7452H69.6623L70.9873 2.66992L72.3123 6.7452ZM71.0111 10.8232L74.4603 13.3299L73.4365 10.1781L71.019 10.8174L71.0111 10.8232Z" fill="white"/>
<path d="M84 0H100V16H84V0Z" fill="#DADCE2"/>
<path fill-rule="evenodd" clip-rule="evenodd" d="M93.316 6.7452H97.6121L94.1388 9.27468L92.0226 10.8174L92.0109 10.8205L92.0152 10.8232L91.9911 10.8406L88.5178 13.35L89.8428 9.27468L86.3701 6.7452H90.6661L91.9911 2.66992L93.316 6.7452ZM92.0152 10.8232L95.4637 13.3299L94.4402 10.1781L92.0226 10.8174L92.0152 10.8232Z" fill="white"/>
</svg>
