<?xml version="1.0" encoding="UTF-8"?>
<svg fill="none" viewBox="0 0 16 16" xmlns="http://www.w3.org/2000/svg">
    <g clip-path="url(#a)">
        <path d="m10.66 3.3008 0.3537-0.35337-0.3537 0.35337zm2.0548 2.057-0.3537 0.35337 0.3537-0.35337zm-6.8888 7.5956-0.35373 0.3534 0.35373-0.3534zm-2.7445-2.7472 0.35374-0.35341-0.35374 0.35341zm8.4544-0.6773c-0.2585 0.09712-0.3894 0.38541-0.2922 0.6439 0.0971 0.2585 0.3854 0.3893 0.6439 0.2922l-0.3517-0.9361zm-5.9872-5.3759c-0.095 0.25929 0.03818 0.54649 0.29746 0.64149 0.25929 0.095 0.5465-0.03818 0.6415-0.29746l-0.93896-0.34403zm-1.5187 3.4454c0.26621-0.0734 0.42252-0.3487 0.34913-0.61491-0.0734-0.26621-0.3487-0.42252-0.61491-0.34912l0.26578 0.96403zm5.3729 4.6691c0.07325-0.2663-0.0832-0.5415-0.34945-0.6147-0.26625-0.0733-0.54147 0.0832-0.61473 0.3494l0.96418 0.2653zm-7.5902-3.7633-0.49999 0.00316 0.49999-0.00316zm0.14132-0.53543-0.43328-0.24953 0.43328 0.24953zm5.5832 6.2607 7.6e-4 -0.5h-1e-5l-7.5e-4 0.5zm0.52536-0.139-0.24782-0.4342h-1e-5l0.24783 0.4342zm-0.26401-12.732 0.10772 0.48826-0.10772-0.48826zm-6.8186 12.956c-0.19516 0.1954-0.195 0.512 3.6e-4 0.7072 0.19536 0.1951 0.51194 0.195 0.70711-4e-4l-0.70747-0.7068zm3.8096-2.3985c0.19517-0.1954 0.19501-0.512-3.5e-4 -0.7071-0.19537-0.1952-0.51195-0.195-0.70711 3e-4l0.70746 0.7068zm5.5167-8.2612 2.0548 2.0569 0.7075-0.70674-2.0549-2.057-0.7074 0.70675zm-4.1266 8.9457-2.7444-2.7472-0.70747 0.70671 2.7445 2.7473 0.70746-0.7068zm-2.7444-2.7472c-0.43076-0.4312-0.72287-0.72469-0.91242-0.96284-0.19021-0.23898-0.20985-0.34243-0.21014-0.38888l-0.99998 0.00632c0.00245 0.38813 0.19519 0.71319 0.42769 1.0053 0.23316 0.29295 0.57409 0.63311 0.98738 1.0468l0.70747-0.70671zm0.32894-3.2184c-0.56348 0.15535-1.0278 0.28257-1.3752 0.42201-0.34637 0.13905-0.67454 0.32646-0.86829 0.66288l0.86657 0.49907c0.02308-0.04008 0.09103-0.12023 0.37428-0.23394 0.28228-0.11333 0.68105-0.22406 1.2684-0.38599l-0.26578-0.96403zm-1.4515 1.8667c-6.3e-4 -0.09923 0.02514-0.19682 0.07462-0.28273l-0.86657-0.49907c-0.13799 0.23961-0.20978 0.51162-0.20803 0.78812l0.99998-0.00632zm3.1596 4.8057c0.41591 0.4163 0.75791 0.7598 1.0525 0.9944 0.2937 0.2339 0.62095 0.4277 1.0118 0.4283l0.00149-1c-0.0463-1e-4 -0.14997-0.0192-0.39025-0.2105-0.23944-0.1908-0.5345-0.485-0.96801-0.919l-0.70746 0.7068zm2.9664-1.3046c-0.16278 0.5917-0.27413 0.9935-0.38823 1.2777-0.11451 0.2853-0.19532 0.3533-0.2357 0.3764l0.49564 0.8685c0.33936-0.1937 0.52817-0.5238 0.66808-0.8724 0.14032-0.3495 0.2682-0.8172 0.42439-1.3849l-0.96418-0.2653zm-0.90222 2.7273c0.27141 4e-4 0.5382-0.0702 0.77393-0.2047l-0.49565-0.8685c-0.08434 0.0481-0.17975 0.0733-0.27677 0.0732l-0.00151 1zm4.8246-9.0183c0.709 0.7097 1.1995 1.2026 1.5005 1.6087 0.2957 0.39905 0.3297 0.6114 0.2936 0.77842l0.9774 0.21135c0.1265-0.58535-0.1067-1.0982-0.4676-1.5851-0.3556-0.47987-0.9109-1.0339-1.5964-1.7201l-0.7075 0.70674zm-0.4735 4.7538c0.9076-0.341 1.6421-0.61558 2.1642-0.90533 0.5298-0.29408 0.9542-0.66453 1.0808-1.25l-0.9774-0.21135c-0.0361 0.16693-0.1547 0.34608-0.5887 0.58695-0.4418 0.2452-1.0919 0.49089-2.0306 0.84359l0.3517 0.9361zm-0.8739-7.5175c-0.6906-0.69129-1.2479-1.2511-1.7302-1.6092-0.48915-0.36316-1.0047-0.59817-1.5926-0.46847l0.21545 0.97651c0.16649-0.03673 0.37926-0.00343 0.78105 0.29487 0.40861 0.30336 0.90478 0.79817 1.6189 1.513l0.7074-0.70675zm-4.526 1.5495c0.34773-0.9491 0.59016-1.6069 0.83353-2.0542 0.23935-0.43984 0.41854-0.55972 0.58511-0.59647l-0.21545-0.97651c-0.58777 0.12968-0.95677 0.55976-1.248 1.095-0.28723 0.52784-0.55783 1.2702-0.89412 2.1881l0.93896 0.34403zm-4.8002 10.524 3.1021-3.1053-0.70746-0.7068-3.1022 3.1053 0.70747 0.7068z" fill="#6E7583"/>
        <path d="m3.3332 4 8.6666 8.6667" stroke="#6E7583" stroke-linecap="round"/>
    </g>
    <defs>
        <clipPath id="a">
            <rect width="16" height="16" fill="#fff"/>
        </clipPath>
    </defs>
</svg>
