<svg fill="none" xmlns="http://www.w3.org/2000/svg" viewBox="0 0 14 14"><path fill-rule="evenodd" clip-rule="evenodd" d="M13.63 5.47 12.77 7l.85 1.54a.33.33 0 0 1-.12.45l-1.51.9-.02 1.75a.34.34 0 0 1-.34.33L9.88 12l-.9 1.5a.34.34 0 0 1-.45.13L7 12.77l-1.54.85a.33.33 0 0 1-.45-.12l-.9-1.51-1.75-.02a.34.34 0 0 1-.33-.34L2 9.88.5 8.98a.33.33 0 0 1-.12-.45L1.23 7 .38 5.46a.33.33 0 0 1 .12-.44L2 4.12l.03-1.76a.34.34 0 0 1 .33-.33L4.12 2 5.02.5a.33.33 0 0 1 .45-.12L7 1.23 8.54.38a.33.33 0 0 1 .45.12L9.89 2l1.75.02a.34.34 0 0 1 .33.34L12 4.12l1.5.9a.33.33 0 0 1 .13.45ZM6.16 7.8 8.8 5.12a.6.6 0 0 1 .84 0 .6.6 0 0 1 0 .84l-3.07 3.1a.61.61 0 0 1-.41.17.57.57 0 0 1-.42-.17l-1.4-1.42a.6.6 0 0 1 0-.83c.23-.23.6-.23.82 0l.99 1Z" fill="#046DCB"/></svg>